<?xml version="1.0" encoding="UTF-8"?>
<svg xmlns="http://www.w3.org/2000/svg" xml:space="preserve" width="1in" height="1in" version="1.1" style="shape-rendering:geometricPrecision; text-rendering:geometricPrecision; image-rendering:optimizeQuality; fill-rule:evenodd; clip-rule:evenodd"
viewBox="0 0 5800 5700">
 <style type="text/css">
  .fil0 {
     fill: white;
     stroke: white;
   }
   @media (prefers-color-scheme: dark) {
     .fil0 {
       fill: white;
       stroke: white;
     }
   }
 </style>
 <g>
  <path class="fil0" d="M2931 737c-1167,0 -2116,949 -2116,2116 0,1167 949,2116 2116,2116 1167,0 2116,-949 2116,-2116 0,-1167 -949,-2116 -2116,-2116zm0 4704c-1427,0 -2588,-1161 -2588,-2588 0,-1427 1161,-2588 2588,-2588 1427,0 2588,1161 2588,2588 0,1427 -1161,2588 -2588,2588z"/>
  <path class="fil0" d="M2277 2619c80,-100 107,-161 107,-257l0 -371c0,-107 -50,-157 -150,-157l-49 0c-104,0 -153,50 -153,157l0 475 -391 0 0 -494c0,-333 165,-497 494,-497l161 0c329,0 493,164 493,497l0 371c0,188 -42,326 -206,528l-433 544c-84,107 -111,168 -111,295l0 95 750 0 0 372 -1155 0 0 -483c0,-195 49,-329 210,-532l433 -543z"/>
  <path class="fil0" d="M3685 2634c103,0 153,-50 153,-157l0 -493c0,-104 -50,-154 -153,-154l-61 0c-108,0 -157,50 -157,154l0 493c0,107 49,157 157,157l61 0zm-222 1057c0,103 50,153 157,153l69 0c103,0 153,-50 153,-153l0 -555c0,-104 -50,-154 -153,-154l-69 0c-107,0 -157,50 -157,154l0 555zm272 -2216c333,0 497,164 497,497l0 413c0,230 -80,345 -222,398 161,46 230,150 230,345l0 574c0,333 -165,498 -498,498l-180 0c-333,0 -497,-165 -497,-498l0 -574c0,-195 69,-299 229,-345 -141,-53 -222,-168 -222,-398l0 -413c0,-333 165,-497 498,-497l165 0z"/>
 </g>
</svg>
