<svg xmlns="http://www.w3.org/2000/svg" width="85" height="32" viewBox="0 0 85 32">
    <path fill="#000" fill-rule="nonzero" d="M14.41 31.019c-1.87-.208-3.43-.614-4.976-1.294-4.316-1.9-7.583-5.652-8.799-10.106C.22 18.095.068 16.918.04 15.546c-.018-.9.133-1.938.282-2.687.924-4.666 3.716-8.511 7.83-10.782 1.566-.865 3.068-1.4 4.924-1.755.758-.144 1.816-.303 2.732-.288 1.333.022 2.473.177 3.963.55a15.68 15.68 0 0 1 9.149 6.38c1.337 1.964 2.115 3.93 2.527 6.382.202 1.203.185 3.426-.036 4.66-.43 2.407-1.162 4.225-2.489 6.184-.675.996-.943 1.311-1.964 2.312-.956.938-1.166 1.116-1.958 1.671-1.696 1.189-3.105 1.833-5.341 2.442-1.283.35-3.914.552-5.248.404zm3.428-3.016c2.334-.373 4.287-1.235 6.126-2.703 1.722-1.375 3.161-3.363 3.908-5.397.576-1.57.786-2.885.738-4.621-.02-.742-.087-1.561-.157-1.927-.538-2.828-2.148-5.58-4.29-7.334-1.777-1.454-3.61-2.32-5.876-2.796-1.127-.238-1.278-.259-2.381-.272-1.687-.02-2.608.212-4.047.677-1.922.62-3.427 1.52-4.913 2.938-1.96 1.869-3.18 4.103-3.702 6.779-.141.722-.281 1.089-.28 2.293.002 1.275.138 1.535.31 2.34.358 1.667.961 3.13 1.822 4.42 1.373 2.058 3.065 3.511 5.314 4.562 1.228.574 2.267.865 4.074 1.14.608.093 2.507.037 3.354-.099zm1.094-4.4c-1.009-.159-1.598-.543-1.965-1.28-.344-.69-.38-1.049-.355-3.587.023-2.265.026-2.313.195-2.63.226-.422.422-.628.763-.8l.279-.14-.288-.204c-.382-.273-.59-.572-.753-1.091-.119-.375-.137-.677-.137-2.351 0-1.708.016-1.973.144-2.378.19-.603.443-.972.893-1.299.613-.446.98-.519 2.573-.513 1.26.004 1.424.02 1.808.167.578.223.993.55 1.27 1.005.374.612.423.97.423 3.088 0 1.595-.02 1.964-.125 2.298-.15.472-.428.849-.81 1.095-.264.17-.27.181-.114.23.09.028.321.196.515.374.55.507.57.625.57 3.418-.001 2.49-.03 2.772-.347 3.374-.21.4-.64.785-1.111.996-.697.311-2.248.415-3.428.228zm2.092-2.302a.74.74 0 0 0 .248-.301c.045-.114.065-.973.052-2.181l-.022-1.993-.2-.197c-.176-.172-.269-.2-.733-.224-.639-.032-1.036.101-1.145.383-.105.271-.096 4.087.01 4.287.11.21.088.192.404.308.345.127 1.135.08 1.386-.082zm-.123-7.184c.39-.192.43-.397.43-2.24 0-1.062-.03-1.699-.087-1.864-.131-.378-.463-.518-1.133-.48-.46.025-.562.056-.729.22l-.194.191-.02 1.845c-.014 1.384.005 1.889.074 2.023.135.26.534.43 1.003.43.236 0 .506-.051.656-.125zm-12.98 7.67c.001-1.96.057-2.36.436-3.11.292-.579.303-.593 2.167-2.906.895-1.11 1.692-2.159 1.771-2.33.128-.276.144-.474.145-1.83.001-.98-.028-1.583-.08-1.697-.114-.244-.454-.368-.99-.36-.552.007-.79.144-.893.512-.042.148-.077.939-.077 1.757v1.487H7.983l.025-2.025c.024-1.91.035-2.048.192-2.435.336-.828 1.122-1.369 2.186-1.504.891-.113 2.444-.03 2.951.157.813.301 1.321.841 1.558 1.657.078.266.125.85.151 1.862.055 2.122-.082 2.917-.663 3.847-.142.227-.981 1.3-1.864 2.384-.883 1.084-1.695 2.146-1.804 2.36-.158.308-.205.516-.229 1.004l-.03.615 2.142-.021c1.177-.011 2.216-.002 2.307.02.165.04.166.047.146 1.167l-.02 1.128-3.556.018-3.555.019.001-1.775zm30.625 9.014c-1.288-.199-2.166-.91-2.566-2.078-.15-.44-.16-.618-.185-3.136l-.026-2.67h3.073V25.2c0 2.26.002 2.285.167 2.527.253.37.5.459 1.263.455.744-.004.953-.088 1.198-.485.132-.211.143-.372.143-2.096 0-1.868 0-1.868-.19-2.242-.204-.403-.316-.493-3.055-2.449-.682-.487-1.399-1.044-1.593-1.238-.402-.402-.81-1.184-.922-1.766-.12-.625-.093-4.39.036-4.989.286-1.325 1.046-2.096 2.403-2.437.602-.15 3.237-.151 3.888 0 1.174.272 1.861.875 2.291 2.012.152.4.163.562.188 2.844l.027 2.419h-3.073v-1.953c0-2.15-.023-2.278-.461-2.594-.175-.126-.313-.148-.915-.148-.797 0-1.006.082-1.23.484-.112.202-.129.434-.129 1.774 0 1.692.04 1.914.418 2.337.121.136 1.044.835 2.051 1.553 1.007.719 2.037 1.496 2.289 1.727.544.5.926 1.203 1.038 1.91.119.748.094 4.811-.033 5.4-.28 1.297-.972 2.06-2.226 2.45-.317.1-.721.13-1.932.147-.843.012-1.714-.006-1.937-.04zm19.658.032c-.08-.018-.326-.069-.547-.112a3.008 3.008 0 0 1-1.544-.834c-.386-.405-.572-.734-.764-1.346-.127-.404-.135-.844-.135-7.883 0-6.096.019-7.527.1-7.85.332-1.298 1.177-2.09 2.526-2.367.542-.111 3.404-.113 3.97-.002.985.192 1.933.863 2.267 1.603.372.827.363.621.362 8.542-.001 8.006.006 7.853-.4 8.64-.362.702-.956 1.18-1.805 1.452-.397.128-.68.15-2.17.168-.943.011-1.78.006-1.86-.011zm2.674-2.852c.445-.29.426.043.426-7.37 0-6.296-.01-6.78-.128-7.011-.21-.411-.502-.526-1.325-.523-.778.002-1.046.089-1.312.42-.152.19-.152.202-.152 7.13v6.938l.188.22c.254.297.52.362 1.38.341.554-.013.776-.048.923-.145zm-12.483-5.997V13.31h-2.844v-2.795h8.752v2.795H51.53v17.348h-3.136v-8.674zm17.94-1.397V10.515h3.645l.037.161c.876 3.765 2.152 9.277 2.41 10.412.189.828.37 1.57.403 1.65.033.078.062-2.64.065-6.04l.005-6.183h2.771v20.143h-3.394l-1.567-6.666-1.566-6.666-.019 6.666-.019 6.666h-2.77V20.587zm11.232 0V10.515H84.568v2.795h-3.865V19.045h3.72v2.796h-3.72v6.022h3.865v2.795H77.567V20.587z"/>
</svg>
